<svg width="63" height="34" viewBox="0 0 63 34" fill="none" xmlns="http://www.w3.org/2000/svg">
<path d="M31.4728 12.0906L38.5693 24.086L19.3294 18.9307L31.4728 12.0906Z" fill="#D9D9D9"/>
<path fill-rule="evenodd" clip-rule="evenodd" d="M23.7801 7.95876L26.8832 6.59086C31.0714 4.7446 35.9785 5.97754 38.7966 9.58421L41.1668 12.6175L33.109 9.79429C32.6198 9.62292 32.1181 9.48983 31.6084 9.39623L23.7801 7.95876ZM31.1793 15.1178C37.5809 16.8331 43.0601 17.1425 43.4175 15.8088C43.7748 14.4751 38.875 12.0035 32.4734 10.2881C26.0718 8.57285 20.5926 8.26347 20.2353 9.59714C19.8779 10.9308 24.7777 13.4025 31.1793 15.1178Z" fill="#486951"/>
<ellipse cx="28.5859" cy="22.7051" rx="10.4587" ry="4" transform="rotate(15 28.5859 22.7051)" fill="#CACACA"/>
</svg>
